<?xml version='1.0' encoding='UTF-8'?>
<!DOCTYPE svg PUBLIC "-//W3C//DTD SVG 1.0//EN" "http://www.w3.org/TR/2001/REC-SVG-20010904/DTD/svg10.dtd">
<svg viewBox="0 0 448 280" xmlns="http://www.w3.org/2000/svg" xmlns:inkspace="http://www.inkscape.org/namespaces/inkscape" xmlns:xlink="http://www.w3.org/1999/xlink">
  <defs id="defs_block">
    <filter height="1.504" id="filter_blur" inkspace:collect="always" width="1.1575" x="-0.07875" y="-0.252">
      <feGaussianBlur id="feGaussianBlur3780" inkspace:collect="always" stdDeviation="4.2" />
    </filter>
  </defs>
  <title>blockdiag</title>
  <desc>blockdiag { default_node_color = lightyellow; default_group_color = red; default_linecolor = blue; default_textcolor = black;
A[href="http://google.com"]; A[color = "lightgreen"]; A[numbered = 007];
A -&gt; B -&gt; C; B -&gt; D; group { A;C; } }
</desc>
  <rect fill="rgb(255,0,0)" height="140" style="filter:url(#filter_blur)" width="144" x="248" y="30" />
  <rect fill="rgb(0,0,0)" height="40" stroke="rgb(0,0,0)" style="filter:url(#filter_blur);opacity:0.7;fill-opacity:1" width="128" x="67" y="46" />
  <a xlink:href="http://google.com">
    <rect fill="rgb(0,0,0)" height="40" stroke="rgb(0,0,0)" style="filter:url(#filter_blur);opacity:0.7;fill-opacity:1" width="128" x="259" y="46" />
  </a>
  <rect fill="rgb(0,0,0)" height="40" stroke="rgb(0,0,0)" style="filter:url(#filter_blur);opacity:0.7;fill-opacity:1" width="128" x="259" y="126" />
  <rect fill="rgb(0,0,0)" height="40" stroke="rgb(0,0,0)" style="filter:url(#filter_blur);opacity:0.7;fill-opacity:1" width="128" x="259" y="206" />
  <rect fill="rgb(255,255,224)" height="40" stroke="rgb(0,0,255)" width="128" x="64" y="40" />
  <text fill="rgb(0,0,0)" font-family="sans-serif" font-size="11" font-style="normal" font-weight="normal" text-anchor="middle" textLength="8" x="128" y="66">B</text>
  <a xlink:href="http://google.com">
    <rect fill="rgb(144,238,144)" height="40" stroke="rgb(0,0,255)" width="128" x="256" y="40" />
    <text fill="rgb(0,0,0)" font-family="sans-serif" font-size="11" font-style="normal" font-weight="normal" text-anchor="middle" textLength="9" x="320" y="65">A</text>
    <ellipse cx="256" cy="40" fill="pink" rx="12" ry="12" stroke="rgb(0,0,255)" />
    <text fill="rgb(0,0,0)" font-family="sans-serif" font-size="11" font-style="normal" font-weight="normal" text-anchor="middle" textLength="22" x="256" y="45">007</text>
  </a>
  <rect fill="rgb(255,255,224)" height="40" stroke="rgb(0,0,255)" width="128" x="256" y="120" />
  <text fill="rgb(0,0,0)" font-family="sans-serif" font-size="11" font-style="normal" font-weight="normal" text-anchor="middle" textLength="9" x="320" y="145">C</text>
  <rect fill="rgb(255,255,224)" height="40" stroke="rgb(0,0,255)" width="128" x="256" y="200" />
  <text fill="rgb(0,0,0)" font-family="sans-serif" font-size="11" font-style="normal" font-weight="normal" text-anchor="middle" textLength="9" x="320" y="226">D</text>
  <path d="M 192 60 L 224 60" fill="none" stroke="rgb(0,0,255)" />
  <path d="M 224 60 L 224 140" fill="none" stroke="rgb(0,0,255)" />
  <path d="M 224 140 L 248 140" fill="none" stroke="rgb(0,0,255)" />
  <polygon fill="rgb(0,0,255)" points="255,140 248,136 248,144 255,140" stroke="rgb(0,0,255)" />
  <path d="M 192 60 L 224 60" fill="none" stroke="rgb(0,0,255)" />
  <path d="M 224 60 L 224 220" fill="none" stroke="rgb(0,0,255)" />
  <path d="M 224 220 L 248 220" fill="none" stroke="rgb(0,0,255)" />
  <polygon fill="rgb(0,0,255)" points="255,220 248,216 248,224 255,220" stroke="rgb(0,0,255)" />
  <path d="M 384 60 L 400 60" fill="none" stroke="rgb(0,0,255)" />
  <path d="M 400 60 L 400 25" fill="none" stroke="rgb(0,0,255)" />
  <path d="M 128 25 L 400 25" fill="none" stroke="rgb(0,0,255)" />
  <path d="M 128 25 L 128 32" fill="none" stroke="rgb(0,0,255)" />
  <polygon fill="rgb(0,0,255)" points="128,39 124,32 132,32 128,39" stroke="rgb(0,0,255)" />
</svg>
